<mxfile host="app.diagrams.net" modified="2021-11-22T13:47:53.830Z" agent="5.0 (X11; Linux x86_64) AppleWebKit/537.36 (KHTML, like Gecko) Chrome/96.0.4664.45 Safari/537.36" etag="RwFX59L8nCDSChSaEUtH" version="15.7.4" type="github" pages="7">
  <diagram id="TfbsqwK6pt8Qm60HU7U2" name="Systemkontext">
    <mxGraphModel dx="2814" dy="1432" grid="1" gridSize="10" guides="1" tooltips="1" connect="1" arrows="1" fold="1" page="1" pageScale="1" pageWidth="827" pageHeight="1169" math="0" shadow="0">
      <root>
        <mxCell id="0" />
        <mxCell id="1" parent="0" />
        <mxCell id="Y_D997t69sZmRWcaALsS-1" value="Agito" style="rounded=0;whiteSpace=wrap;html=1;" parent="1" vertex="1">
          <mxGeometry x="330" y="270" width="120" height="60" as="geometry" />
        </mxCell>
        <mxCell id="Y_D997t69sZmRWcaALsS-2" value="Finanzamt" style="ellipse;shape=cloud;whiteSpace=wrap;html=1;" parent="1" vertex="1">
          <mxGeometry x="210" y="90" width="120" height="80" as="geometry" />
        </mxCell>
        <mxCell id="Y_D997t69sZmRWcaALsS-3" value="Banken" style="ellipse;shape=cloud;whiteSpace=wrap;html=1;" parent="1" vertex="1">
          <mxGeometry x="90" y="230" width="120" height="80" as="geometry" />
        </mxCell>
        <mxCell id="Y_D997t69sZmRWcaALsS-4" value="" style="endArrow=none;html=1;" parent="1" source="Y_D997t69sZmRWcaALsS-1" target="Y_D997t69sZmRWcaALsS-3" edge="1">
          <mxGeometry width="50" height="50" relative="1" as="geometry">
            <mxPoint x="390" y="750" as="sourcePoint" />
            <mxPoint x="440" y="700" as="targetPoint" />
          </mxGeometry>
        </mxCell>
        <mxCell id="Y_D997t69sZmRWcaALsS-5" value="" style="endArrow=none;html=1;" parent="1" source="Y_D997t69sZmRWcaALsS-1" target="Y_D997t69sZmRWcaALsS-2" edge="1">
          <mxGeometry width="50" height="50" relative="1" as="geometry">
            <mxPoint x="350" y="170" as="sourcePoint" />
            <mxPoint x="400" y="120" as="targetPoint" />
          </mxGeometry>
        </mxCell>
        <mxCell id="Y_D997t69sZmRWcaALsS-6" value="Helga" style="shape=umlActor;verticalLabelPosition=bottom;verticalAlign=top;html=1;outlineConnect=0;" parent="1" vertex="1">
          <mxGeometry x="550" y="170" width="30" height="60" as="geometry" />
        </mxCell>
        <mxCell id="Y_D997t69sZmRWcaALsS-7" value="" style="endArrow=none;html=1;" parent="1" source="Y_D997t69sZmRWcaALsS-1" target="Y_D997t69sZmRWcaALsS-6" edge="1">
          <mxGeometry width="50" height="50" relative="1" as="geometry">
            <mxPoint x="390" y="750" as="sourcePoint" />
            <mxPoint x="440" y="700" as="targetPoint" />
          </mxGeometry>
        </mxCell>
        <mxCell id="xdBE-hOzKAyirTEN2S2--1" value="..." style="ellipse;shape=cloud;whiteSpace=wrap;html=1;" parent="1" vertex="1">
          <mxGeometry x="150" y="370" width="120" height="80" as="geometry" />
        </mxCell>
        <mxCell id="xdBE-hOzKAyirTEN2S2--2" value="" style="endArrow=none;html=1;" parent="1" source="Y_D997t69sZmRWcaALsS-1" target="xdBE-hOzKAyirTEN2S2--1" edge="1">
          <mxGeometry width="50" height="50" relative="1" as="geometry">
            <mxPoint x="340" y="302.5" as="sourcePoint" />
            <mxPoint x="218.97233121605905" y="287.3715414020073" as="targetPoint" />
          </mxGeometry>
        </mxCell>
        <mxCell id="xdBE-hOzKAyirTEN2S2--3" value="..." style="shape=umlActor;verticalLabelPosition=bottom;verticalAlign=top;html=1;outlineConnect=0;" parent="1" vertex="1">
          <mxGeometry x="510" y="430" width="30" height="60" as="geometry" />
        </mxCell>
        <mxCell id="xdBE-hOzKAyirTEN2S2--4" value="" style="endArrow=none;html=1;" parent="1" source="Y_D997t69sZmRWcaALsS-1" target="xdBE-hOzKAyirTEN2S2--3" edge="1">
          <mxGeometry width="50" height="50" relative="1" as="geometry">
            <mxPoint x="350.909090909091" y="340" as="sourcePoint" />
            <mxPoint x="264.2292484120444" y="392.97101485930625" as="targetPoint" />
          </mxGeometry>
        </mxCell>
        <mxCell id="XehaZe0G5EL70ozvgadj-1" value="Stefan" style="shape=umlActor;verticalLabelPosition=bottom;verticalAlign=top;html=1;outlineConnect=0;" parent="1" vertex="1">
          <mxGeometry x="590" y="300" width="30" height="60" as="geometry" />
        </mxCell>
        <mxCell id="XehaZe0G5EL70ozvgadj-2" value="" style="endArrow=none;html=1;" parent="1" source="Y_D997t69sZmRWcaALsS-1" target="XehaZe0G5EL70ozvgadj-1" edge="1">
          <mxGeometry width="50" height="50" relative="1" as="geometry">
            <mxPoint x="425.3125" y="340" as="sourcePoint" />
            <mxPoint x="520" y="452.2222222222222" as="targetPoint" />
          </mxGeometry>
        </mxCell>
      </root>
    </mxGraphModel>
  </diagram>
  <diagram id="Jv1kLO92tIrWVaZ94RhD" name="fachliche Komponenten">
    <mxGraphModel dx="2814" dy="1432" grid="1" gridSize="10" guides="1" tooltips="1" connect="1" arrows="1" fold="1" page="1" pageScale="1" pageWidth="827" pageHeight="1169" math="0" shadow="0">
      <root>
        <mxCell id="geWKs2Tu2c0srLXgy5YT-0" />
        <mxCell id="geWKs2Tu2c0srLXgy5YT-1" parent="geWKs2Tu2c0srLXgy5YT-0" />
        <mxCell id="WVqGNmkDF1XEmex8QxcM-0" value="«domain»&lt;br&gt;Buchungs-&lt;br&gt;organisation" style="ellipse;whiteSpace=wrap;html=1;" parent="geWKs2Tu2c0srLXgy5YT-1" vertex="1">
          <mxGeometry x="353.5" y="280" width="120" height="79" as="geometry" />
        </mxCell>
        <mxCell id="WVqGNmkDF1XEmex8QxcM-1" value="«domain»&lt;br&gt;Buchungen" style="ellipse;whiteSpace=wrap;html=1;" parent="geWKs2Tu2c0srLXgy5YT-1" vertex="1">
          <mxGeometry x="280" y="450" width="120" height="79" as="geometry" />
        </mxCell>
        <mxCell id="WVqGNmkDF1XEmex8QxcM-2" value="«domain»&lt;br&gt;Kontomanager" style="ellipse;whiteSpace=wrap;html=1;" parent="geWKs2Tu2c0srLXgy5YT-1" vertex="1">
          <mxGeometry x="270" y="60" width="120" height="79" as="geometry" />
        </mxCell>
        <mxCell id="WVqGNmkDF1XEmex8QxcM-3" value="&lt;span&gt;«domain»&lt;/span&gt;&lt;br&gt;Mandant" style="ellipse;whiteSpace=wrap;html=1;" parent="geWKs2Tu2c0srLXgy5YT-1" vertex="1">
          <mxGeometry x="40" y="150" width="120" height="79" as="geometry" />
        </mxCell>
        <mxCell id="WVqGNmkDF1XEmex8QxcM-4" value="&lt;span&gt;«domain»&lt;br&gt;&lt;/span&gt;GoDB" style="ellipse;whiteSpace=wrap;html=1;" parent="geWKs2Tu2c0srLXgy5YT-1" vertex="1">
          <mxGeometry x="520" y="330" width="120" height="79" as="geometry" />
        </mxCell>
        <mxCell id="WVqGNmkDF1XEmex8QxcM-5" value="" style="endArrow=classic;html=1;entryX=0.5;entryY=0;entryDx=0;entryDy=0;exitX=0.5;exitY=1;exitDx=0;exitDy=0;" parent="geWKs2Tu2c0srLXgy5YT-1" source="WVqGNmkDF1XEmex8QxcM-2" target="WkMsdupLP84VZCC2gR5t-2" edge="1">
          <mxGeometry width="50" height="50" relative="1" as="geometry">
            <mxPoint x="340" y="228" as="sourcePoint" />
            <mxPoint x="480" y="50" as="targetPoint" />
          </mxGeometry>
        </mxCell>
        <mxCell id="WVqGNmkDF1XEmex8QxcM-6" value="" style="endArrow=classic;html=1;" parent="geWKs2Tu2c0srLXgy5YT-1" source="WVqGNmkDF1XEmex8QxcM-0" target="WVqGNmkDF1XEmex8QxcM-1" edge="1">
          <mxGeometry width="50" height="50" relative="1" as="geometry">
            <mxPoint x="350" y="300" as="sourcePoint" />
            <mxPoint x="350" y="340" as="targetPoint" />
          </mxGeometry>
        </mxCell>
        <mxCell id="WVqGNmkDF1XEmex8QxcM-7" value="" style="endArrow=classic;html=1;fillColor=#f5f5f5;strokeColor=#E3E3E3;exitX=1;exitY=1;exitDx=0;exitDy=0;" parent="geWKs2Tu2c0srLXgy5YT-1" source="WVqGNmkDF1XEmex8QxcM-2" target="WVqGNmkDF1XEmex8QxcM-4" edge="1">
          <mxGeometry width="50" height="50" relative="1" as="geometry">
            <mxPoint x="379.43247493508943" y="218.27151857599256" as="sourcePoint" />
            <mxPoint x="360" y="350" as="targetPoint" />
          </mxGeometry>
        </mxCell>
        <mxCell id="WVqGNmkDF1XEmex8QxcM-8" value="" style="endArrow=classic;html=1;fillColor=#f5f5f5;strokeColor=#E3E3E3;" parent="geWKs2Tu2c0srLXgy5YT-1" source="WVqGNmkDF1XEmex8QxcM-0" target="WVqGNmkDF1XEmex8QxcM-4" edge="1">
          <mxGeometry width="50" height="50" relative="1" as="geometry">
            <mxPoint x="398" y="284" as="sourcePoint" />
            <mxPoint x="542" y="356" as="targetPoint" />
          </mxGeometry>
        </mxCell>
        <mxCell id="WVqGNmkDF1XEmex8QxcM-9" value="" style="endArrow=classic;html=1;fillColor=#f5f5f5;strokeColor=#E3E3E3;" parent="geWKs2Tu2c0srLXgy5YT-1" source="WVqGNmkDF1XEmex8QxcM-1" target="WVqGNmkDF1XEmex8QxcM-4" edge="1">
          <mxGeometry width="50" height="50" relative="1" as="geometry">
            <mxPoint x="410" y="380" as="sourcePoint" />
            <mxPoint x="530" y="380" as="targetPoint" />
          </mxGeometry>
        </mxCell>
        <mxCell id="WVqGNmkDF1XEmex8QxcM-11" value="«domain»&lt;br&gt;Auswertungen" style="ellipse;whiteSpace=wrap;html=1;" parent="geWKs2Tu2c0srLXgy5YT-1" vertex="1">
          <mxGeometry x="170" y="570" width="120" height="79" as="geometry" />
        </mxCell>
        <mxCell id="WVqGNmkDF1XEmex8QxcM-12" value="" style="endArrow=classic;html=1;exitX=0.5;exitY=0;exitDx=0;exitDy=0;" parent="geWKs2Tu2c0srLXgy5YT-1" source="WVqGNmkDF1XEmex8QxcM-11" target="WVqGNmkDF1XEmex8QxcM-1" edge="1">
          <mxGeometry width="50" height="50" relative="1" as="geometry">
            <mxPoint x="590" y="570" as="sourcePoint" />
            <mxPoint x="350" y="460" as="targetPoint" />
          </mxGeometry>
        </mxCell>
        <mxCell id="OUkdG32yDKXZLdak4ljL-0" value="«domain»&lt;br style=&quot;&quot;&gt;Anlagevermögen" style="ellipse;whiteSpace=wrap;html=1;" parent="geWKs2Tu2c0srLXgy5YT-1" vertex="1">
          <mxGeometry x="520" y="450" width="120" height="79" as="geometry" />
        </mxCell>
        <mxCell id="lr-V3gKdvBvfX50TemmA-0" value="" style="endArrow=classic;html=1;" parent="geWKs2Tu2c0srLXgy5YT-1" source="OUkdG32yDKXZLdak4ljL-0" target="WVqGNmkDF1XEmex8QxcM-1" edge="1">
          <mxGeometry width="50" height="50" relative="1" as="geometry">
            <mxPoint x="350" y="419" as="sourcePoint" />
            <mxPoint x="350" y="460" as="targetPoint" />
          </mxGeometry>
        </mxCell>
        <mxCell id="lr-V3gKdvBvfX50TemmA-1" value="" style="endArrow=classic;html=1;fillColor=#f5f5f5;strokeColor=#E3E3E3;" parent="geWKs2Tu2c0srLXgy5YT-1" source="OUkdG32yDKXZLdak4ljL-0" target="WVqGNmkDF1XEmex8QxcM-4" edge="1">
          <mxGeometry width="50" height="50" relative="1" as="geometry">
            <mxPoint x="397.7813840796457" y="475.60930796017715" as="sourcePoint" />
            <mxPoint x="542.2186159203543" y="403.39069203982285" as="targetPoint" />
          </mxGeometry>
        </mxCell>
        <mxCell id="lr-V3gKdvBvfX50TemmA-2" value="«domain»&lt;br&gt;Jahresabschluss" style="ellipse;whiteSpace=wrap;html=1;" parent="geWKs2Tu2c0srLXgy5YT-1" vertex="1">
          <mxGeometry x="40" y="450" width="120" height="79" as="geometry" />
        </mxCell>
        <mxCell id="lr-V3gKdvBvfX50TemmA-3" value="" style="endArrow=classic;html=1;" parent="geWKs2Tu2c0srLXgy5YT-1" source="lr-V3gKdvBvfX50TemmA-2" target="WVqGNmkDF1XEmex8QxcM-1" edge="1">
          <mxGeometry width="50" height="50" relative="1" as="geometry">
            <mxPoint x="350" y="419" as="sourcePoint" />
            <mxPoint x="350" y="460" as="targetPoint" />
          </mxGeometry>
        </mxCell>
        <mxCell id="Xo4YqgEsehkYlfdIUlrs-0" value="«domain»&lt;br style=&quot;color: rgb(0 , 0 , 0)&quot;&gt;Kostenrechnung" style="ellipse;whiteSpace=wrap;html=1;strokeColor=#E3E3E3;fontColor=#E3E3E3;" parent="geWKs2Tu2c0srLXgy5YT-1" vertex="1">
          <mxGeometry x="300" y="729" width="120" height="79" as="geometry" />
        </mxCell>
        <mxCell id="Xo4YqgEsehkYlfdIUlrs-1" value="«domain»&lt;br style=&quot;color: rgb(0 , 0 , 0)&quot;&gt;Offene Posten" style="ellipse;whiteSpace=wrap;html=1;strokeColor=#E3E3E3;fontColor=#E3E3E3;" parent="geWKs2Tu2c0srLXgy5YT-1" vertex="1">
          <mxGeometry x="170" y="729" width="120" height="79" as="geometry" />
        </mxCell>
        <mxCell id="Xo4YqgEsehkYlfdIUlrs-2" value="«domain»&lt;br&gt;Dokumente" style="ellipse;whiteSpace=wrap;html=1;strokeColor=#E3E3E3;fontColor=#E3E3E3;" parent="geWKs2Tu2c0srLXgy5YT-1" vertex="1">
          <mxGeometry x="40" y="729" width="120" height="79" as="geometry" />
        </mxCell>
        <mxCell id="IBmhMBR8AccTXnoyM4Ro-0" value="«domain»&lt;br style=&quot;color: rgb(0 , 0 , 0)&quot;&gt;Zahlungsverkehr" style="ellipse;whiteSpace=wrap;html=1;strokeColor=#E3E3E3;fontColor=#E3E3E3;" parent="geWKs2Tu2c0srLXgy5YT-1" vertex="1">
          <mxGeometry x="430" y="729" width="120" height="79" as="geometry" />
        </mxCell>
        <mxCell id="IBmhMBR8AccTXnoyM4Ro-1" value="&lt;span&gt;«domain»&lt;/span&gt;&lt;br&gt;Benutzer" style="ellipse;whiteSpace=wrap;html=1;" parent="geWKs2Tu2c0srLXgy5YT-1" vertex="1">
          <mxGeometry x="40" y="251" width="120" height="79" as="geometry" />
        </mxCell>
        <mxCell id="WkMsdupLP84VZCC2gR5t-0" value="«domain»&lt;br&gt;Ust-Voranmeldung" style="ellipse;whiteSpace=wrap;html=1;" parent="geWKs2Tu2c0srLXgy5YT-1" vertex="1">
          <mxGeometry x="370" y="570" width="120" height="79" as="geometry" />
        </mxCell>
        <mxCell id="WkMsdupLP84VZCC2gR5t-1" value="" style="endArrow=classic;html=1;entryX=1;entryY=1;entryDx=0;entryDy=0;exitX=0.5;exitY=0;exitDx=0;exitDy=0;" parent="geWKs2Tu2c0srLXgy5YT-1" source="WkMsdupLP84VZCC2gR5t-0" target="WVqGNmkDF1XEmex8QxcM-1" edge="1">
          <mxGeometry width="50" height="50" relative="1" as="geometry">
            <mxPoint x="270.7595610697331" y="585.5856121538841" as="sourcePoint" />
            <mxPoint x="318.99920016738724" y="533.3190543628502" as="targetPoint" />
          </mxGeometry>
        </mxCell>
        <mxCell id="WkMsdupLP84VZCC2gR5t-2" value="«domain»&lt;br&gt;Buchungsvorschlag" style="ellipse;whiteSpace=wrap;html=1;" parent="geWKs2Tu2c0srLXgy5YT-1" vertex="1">
          <mxGeometry x="190" y="280" width="120" height="79" as="geometry" />
        </mxCell>
        <mxCell id="WkMsdupLP84VZCC2gR5t-3" value="" style="endArrow=classic;html=1;entryX=0;entryY=0;entryDx=0;entryDy=0;exitX=0.5;exitY=1;exitDx=0;exitDy=0;" parent="geWKs2Tu2c0srLXgy5YT-1" source="WkMsdupLP84VZCC2gR5t-2" target="WVqGNmkDF1XEmex8QxcM-1" edge="1">
          <mxGeometry width="50" height="50" relative="1" as="geometry">
            <mxPoint x="280" y="300" as="sourcePoint" />
            <mxPoint x="350" y="170" as="targetPoint" />
          </mxGeometry>
        </mxCell>
        <mxCell id="WkMsdupLP84VZCC2gR5t-5" value="" style="endArrow=classic;html=1;entryX=1;entryY=0.5;entryDx=0;entryDy=0;exitX=0;exitY=0.5;exitDx=0;exitDy=0;" parent="geWKs2Tu2c0srLXgy5YT-1" source="WVqGNmkDF1XEmex8QxcM-0" target="WkMsdupLP84VZCC2gR5t-2" edge="1">
          <mxGeometry width="50" height="50" relative="1" as="geometry">
            <mxPoint x="350" y="149" as="sourcePoint" />
            <mxPoint x="260" y="290" as="targetPoint" />
          </mxGeometry>
        </mxCell>
      </root>
    </mxGraphModel>
  </diagram>
  <diagram id="RsEMWFsgzaWiaNlbOnW2" name="technische Komponenten">
    <mxGraphModel dx="2814" dy="1432" grid="1" gridSize="10" guides="1" tooltips="1" connect="1" arrows="1" fold="1" page="1" pageScale="1" pageWidth="827" pageHeight="1169" math="0" shadow="0">
      <root>
        <mxCell id="DksEPD38ZM9OaImTdq9A-0" />
        <mxCell id="DksEPD38ZM9OaImTdq9A-1" parent="DksEPD38ZM9OaImTdq9A-0" />
        <mxCell id="3TTuFEYPT2MIHC76LZfl-1" value="" style="rounded=0;whiteSpace=wrap;html=1;" parent="DksEPD38ZM9OaImTdq9A-1" vertex="1">
          <mxGeometry x="82" y="40" width="679" height="520" as="geometry" />
        </mxCell>
        <mxCell id="3TTuFEYPT2MIHC76LZfl-2" value="" style="rounded=0;whiteSpace=wrap;html=1;fillColor=#dae8fc;strokeColor=#6c8ebf;" parent="DksEPD38ZM9OaImTdq9A-1" vertex="1">
          <mxGeometry x="100" y="390" width="641" height="160" as="geometry" />
        </mxCell>
        <mxCell id="fkcX8cbr_2oD89F2kbgx-13" value="" style="rounded=0;whiteSpace=wrap;html=1;strokeColor=#6c8ebf;fillColor=#E6FFCC;" parent="DksEPD38ZM9OaImTdq9A-1" vertex="1">
          <mxGeometry x="100" y="220" width="641" height="150" as="geometry" />
        </mxCell>
        <mxCell id="fkcX8cbr_2oD89F2kbgx-14" value="«service»&lt;br&gt;&lt;b&gt;Buchung&lt;/b&gt;" style="html=1;dropTarget=0;" parent="DksEPD38ZM9OaImTdq9A-1" vertex="1">
          <mxGeometry x="330.5" y="420" width="180" height="50" as="geometry" />
        </mxCell>
        <mxCell id="fkcX8cbr_2oD89F2kbgx-15" value="" style="shape=module;jettyWidth=8;jettyHeight=4;" parent="fkcX8cbr_2oD89F2kbgx-14" vertex="1">
          <mxGeometry x="1" width="20" height="20" relative="1" as="geometry">
            <mxPoint x="-27" y="7" as="offset" />
          </mxGeometry>
        </mxCell>
        <mxCell id="fkcX8cbr_2oD89F2kbgx-16" value="«service»&lt;br&gt;&lt;b&gt;Mandant&lt;br&gt;&lt;/b&gt;" style="html=1;dropTarget=0;" parent="DksEPD38ZM9OaImTdq9A-1" vertex="1">
          <mxGeometry x="330.5" y="490" width="180" height="50" as="geometry" />
        </mxCell>
        <mxCell id="fkcX8cbr_2oD89F2kbgx-17" value="" style="shape=module;jettyWidth=8;jettyHeight=4;" parent="fkcX8cbr_2oD89F2kbgx-16" vertex="1">
          <mxGeometry x="1" width="20" height="20" relative="1" as="geometry">
            <mxPoint x="-27" y="7" as="offset" />
          </mxGeometry>
        </mxCell>
        <mxCell id="fkcX8cbr_2oD89F2kbgx-18" value="«service»&lt;br&gt;&lt;b&gt;Anlagevermögen&lt;br&gt;&lt;/b&gt;" style="html=1;dropTarget=0;" parent="DksEPD38ZM9OaImTdq9A-1" vertex="1">
          <mxGeometry x="546" y="230" width="180" height="50" as="geometry" />
        </mxCell>
        <mxCell id="fkcX8cbr_2oD89F2kbgx-19" value="" style="shape=module;jettyWidth=8;jettyHeight=4;" parent="fkcX8cbr_2oD89F2kbgx-18" vertex="1">
          <mxGeometry x="1" width="20" height="20" relative="1" as="geometry">
            <mxPoint x="-27" y="7" as="offset" />
          </mxGeometry>
        </mxCell>
        <mxCell id="fkcX8cbr_2oD89F2kbgx-20" value="«service»&lt;br&gt;&lt;b&gt;Kontomanager&lt;br&gt;&lt;/b&gt;" style="html=1;dropTarget=0;" parent="DksEPD38ZM9OaImTdq9A-1" vertex="1">
          <mxGeometry x="110" y="230" width="180" height="50" as="geometry" />
        </mxCell>
        <mxCell id="fkcX8cbr_2oD89F2kbgx-21" value="" style="shape=module;jettyWidth=8;jettyHeight=4;" parent="fkcX8cbr_2oD89F2kbgx-20" vertex="1">
          <mxGeometry x="1" width="20" height="20" relative="1" as="geometry">
            <mxPoint x="-27" y="7" as="offset" />
          </mxGeometry>
        </mxCell>
        <mxCell id="fkcX8cbr_2oD89F2kbgx-22" value="«service»&lt;br&gt;&lt;b&gt;Buchungszeile&lt;br&gt;&lt;/b&gt;" style="html=1;dropTarget=0;" parent="DksEPD38ZM9OaImTdq9A-1" vertex="1">
          <mxGeometry x="326" y="230" width="180" height="50" as="geometry" />
        </mxCell>
        <mxCell id="fkcX8cbr_2oD89F2kbgx-23" value="" style="shape=module;jettyWidth=8;jettyHeight=4;" parent="fkcX8cbr_2oD89F2kbgx-22" vertex="1">
          <mxGeometry x="1" width="20" height="20" relative="1" as="geometry">
            <mxPoint x="-27" y="7" as="offset" />
          </mxGeometry>
        </mxCell>
        <mxCell id="fkcX8cbr_2oD89F2kbgx-24" value="«service»&lt;br&gt;&lt;b&gt;GoBD&lt;br&gt;&lt;/b&gt;" style="html=1;dropTarget=0;" parent="DksEPD38ZM9OaImTdq9A-1" vertex="1">
          <mxGeometry x="546" y="490" width="180" height="50" as="geometry" />
        </mxCell>
        <mxCell id="fkcX8cbr_2oD89F2kbgx-25" value="" style="shape=module;jettyWidth=8;jettyHeight=4;" parent="fkcX8cbr_2oD89F2kbgx-24" vertex="1">
          <mxGeometry x="1" width="20" height="20" relative="1" as="geometry">
            <mxPoint x="-27" y="7" as="offset" />
          </mxGeometry>
        </mxCell>
        <mxCell id="fkcX8cbr_2oD89F2kbgx-26" value="«service»&lt;br&gt;&lt;b&gt;Auswertung&lt;br&gt;&lt;/b&gt;" style="html=1;dropTarget=0;" parent="DksEPD38ZM9OaImTdq9A-1" vertex="1">
          <mxGeometry x="328.5" y="310" width="180" height="50" as="geometry" />
        </mxCell>
        <mxCell id="fkcX8cbr_2oD89F2kbgx-27" value="" style="shape=module;jettyWidth=8;jettyHeight=4;" parent="fkcX8cbr_2oD89F2kbgx-26" vertex="1">
          <mxGeometry x="1" width="20" height="20" relative="1" as="geometry">
            <mxPoint x="-27" y="7" as="offset" />
          </mxGeometry>
        </mxCell>
        <mxCell id="fkcX8cbr_2oD89F2kbgx-28" value="«service»&lt;br&gt;&lt;b&gt;Jahresabschluss&lt;br&gt;&lt;/b&gt;" style="html=1;dropTarget=0;" parent="DksEPD38ZM9OaImTdq9A-1" vertex="1">
          <mxGeometry x="548.5" y="310" width="180" height="50" as="geometry" />
        </mxCell>
        <mxCell id="fkcX8cbr_2oD89F2kbgx-29" value="" style="shape=module;jettyWidth=8;jettyHeight=4;" parent="fkcX8cbr_2oD89F2kbgx-28" vertex="1">
          <mxGeometry x="1" width="20" height="20" relative="1" as="geometry">
            <mxPoint x="-27" y="7" as="offset" />
          </mxGeometry>
        </mxCell>
        <mxCell id="fkcX8cbr_2oD89F2kbgx-36" value="«service»&lt;br&gt;&lt;b&gt;Benutzer&lt;br&gt;&lt;/b&gt;" style="html=1;dropTarget=0;" parent="DksEPD38ZM9OaImTdq9A-1" vertex="1">
          <mxGeometry x="110" y="490" width="180" height="50" as="geometry" />
        </mxCell>
        <mxCell id="fkcX8cbr_2oD89F2kbgx-37" value="" style="shape=module;jettyWidth=8;jettyHeight=4;" parent="fkcX8cbr_2oD89F2kbgx-36" vertex="1">
          <mxGeometry x="1" width="20" height="20" relative="1" as="geometry">
            <mxPoint x="-27" y="7" as="offset" />
          </mxGeometry>
        </mxCell>
        <mxCell id="JiAh4LdyAlqODD7aGTqX-0" value="«service»&lt;br&gt;&lt;b&gt;Buchungsvorschlag&lt;br&gt;&lt;/b&gt;" style="html=1;dropTarget=0;" parent="DksEPD38ZM9OaImTdq9A-1" vertex="1">
          <mxGeometry x="112.5" y="310" width="180" height="50" as="geometry" />
        </mxCell>
        <mxCell id="JiAh4LdyAlqODD7aGTqX-1" value="" style="shape=module;jettyWidth=8;jettyHeight=4;" parent="JiAh4LdyAlqODD7aGTqX-0" vertex="1">
          <mxGeometry x="1" width="20" height="20" relative="1" as="geometry">
            <mxPoint x="-27" y="7" as="offset" />
          </mxGeometry>
        </mxCell>
        <mxCell id="IB999HqH4iKez3olauVg-2" value="" style="rounded=0;whiteSpace=wrap;html=1;strokeColor=#d79b00;fillColor=#ffe6cc;" parent="DksEPD38ZM9OaImTdq9A-1" vertex="1">
          <mxGeometry x="100" y="50" width="641" height="150" as="geometry" />
        </mxCell>
        <mxCell id="IB999HqH4iKez3olauVg-3" value="«service»&lt;br&gt;&lt;b&gt;Frontend-&lt;br&gt;Shell&lt;br&gt;&lt;/b&gt;" style="html=1;dropTarget=0;" parent="DksEPD38ZM9OaImTdq9A-1" vertex="1">
          <mxGeometry x="328.5" y="100" width="180" height="50" as="geometry" />
        </mxCell>
        <mxCell id="IB999HqH4iKez3olauVg-4" value="" style="shape=module;jettyWidth=8;jettyHeight=4;" parent="IB999HqH4iKez3olauVg-3" vertex="1">
          <mxGeometry x="1" width="20" height="20" relative="1" as="geometry">
            <mxPoint x="-27" y="7" as="offset" />
          </mxGeometry>
        </mxCell>
        <mxCell id="IB999HqH4iKez3olauVg-5" value="&lt;font style=&quot;font-size: 18px&quot;&gt;&lt;b&gt;User&lt;br&gt;Interface&lt;br&gt;&lt;/b&gt;&lt;/font&gt;" style="text;html=1;strokeColor=none;fillColor=none;align=center;verticalAlign=middle;whiteSpace=wrap;rounded=0;hachureGap=4;pointerEvents=0;" parent="DksEPD38ZM9OaImTdq9A-1" vertex="1">
          <mxGeometry x="763" y="115" width="40" height="20" as="geometry" />
        </mxCell>
        <mxCell id="IB999HqH4iKez3olauVg-6" value="&lt;font style=&quot;font-size: 18px&quot;&gt;&lt;b&gt;Fach-&lt;br&gt;services&lt;/b&gt;&lt;/font&gt;" style="text;html=1;strokeColor=none;fillColor=none;align=center;verticalAlign=middle;whiteSpace=wrap;rounded=0;hachureGap=4;pointerEvents=0;" parent="DksEPD38ZM9OaImTdq9A-1" vertex="1">
          <mxGeometry x="763" y="285" width="40" height="20" as="geometry" />
        </mxCell>
        <mxCell id="IB999HqH4iKez3olauVg-7" value="&lt;font style=&quot;font-size: 18px&quot;&gt;&lt;b&gt;Core&lt;br&gt;Services&lt;/b&gt;&lt;/font&gt;" style="text;html=1;strokeColor=none;fillColor=none;align=center;verticalAlign=middle;whiteSpace=wrap;rounded=0;hachureGap=4;pointerEvents=0;" parent="DksEPD38ZM9OaImTdq9A-1" vertex="1">
          <mxGeometry x="763" y="465" width="40" height="20" as="geometry" />
        </mxCell>
        <mxCell id="Wva8gB0dgkGnuOpRcJue-0" value="" style="html=1;shadow=0;dashed=0;align=center;verticalAlign=middle;shape=mxgraph.arrows2.arrow;dy=0.6;dx=40;direction=south;notch=0;" parent="DksEPD38ZM9OaImTdq9A-1" vertex="1">
          <mxGeometry x="6" y="120" width="70" height="180" as="geometry" />
        </mxCell>
        <mxCell id="Wva8gB0dgkGnuOpRcJue-1" value="" style="html=1;shadow=0;dashed=0;align=center;verticalAlign=middle;shape=mxgraph.arrows2.arrow;dy=0.6;dx=40;direction=south;notch=0;" parent="DksEPD38ZM9OaImTdq9A-1" vertex="1">
          <mxGeometry x="6" y="300" width="70" height="180" as="geometry" />
        </mxCell>
        <mxCell id="07nxMtmL8tau-T3znrVh-0" value="«service»&lt;br&gt;&lt;b&gt;Kasse&lt;br&gt;&lt;/b&gt;" style="html=1;dropTarget=0;" parent="DksEPD38ZM9OaImTdq9A-1" vertex="1">
          <mxGeometry x="360" y="185" width="180" height="50" as="geometry" />
        </mxCell>
        <mxCell id="07nxMtmL8tau-T3znrVh-1" value="" style="shape=module;jettyWidth=8;jettyHeight=4;" parent="07nxMtmL8tau-T3znrVh-0" vertex="1">
          <mxGeometry x="1" width="20" height="20" relative="1" as="geometry">
            <mxPoint x="-27" y="7" as="offset" />
          </mxGeometry>
        </mxCell>
      </root>
    </mxGraphModel>
  </diagram>
  <diagram id="sffFwQoVKHdkiY7V-4ZY" name="Datenmodelle">
    <mxGraphModel dx="2814" dy="1432" grid="1" gridSize="10" guides="1" tooltips="1" connect="1" arrows="1" fold="1" page="1" pageScale="1" pageWidth="1169" pageHeight="827" math="0" shadow="0">
      <root>
        <mxCell id="DwTzeZmS_MT8VIM_kDLp-0" />
        <mxCell id="DwTzeZmS_MT8VIM_kDLp-1" parent="DwTzeZmS_MT8VIM_kDLp-0" />
        <mxCell id="ND92nCrHSuS9NVeJZmGj-20" value="&lt;span style=&quot;font-weight: 400&quot;&gt;mandant&lt;br&gt;&lt;/span&gt;" style="shape=folder;fontStyle=1;spacingTop=10;tabWidth=40;tabHeight=14;tabPosition=left;html=1;align=right;verticalAlign=top;" parent="DwTzeZmS_MT8VIM_kDLp-1" vertex="1">
          <mxGeometry x="360" y="41" width="240" height="119" as="geometry" />
        </mxCell>
        <mxCell id="DwTzeZmS_MT8VIM_kDLp-7" value="«entity»&#xa;Mandant" style="swimlane;fontStyle=0;childLayout=stackLayout;horizontal=1;startSize=26;fillColor=none;horizontalStack=0;resizeParent=1;resizeParentMax=0;resizeLast=0;collapsible=1;marginBottom=0;" parent="DwTzeZmS_MT8VIM_kDLp-1" vertex="1">
          <mxGeometry x="380" y="71" width="140" height="80" as="geometry">
            <mxRectangle x="180" y="400" width="80" height="30" as="alternateBounds" />
          </mxGeometry>
        </mxCell>
        <mxCell id="DwTzeZmS_MT8VIM_kDLp-8" value="+ Name&#xa;+ Adressdaten&#xa;+ UserIDs" style="text;strokeColor=none;fillColor=none;align=left;verticalAlign=top;spacingLeft=4;spacingRight=4;overflow=hidden;rotatable=0;points=[[0,0.5],[1,0.5]];portConstraint=eastwest;" parent="DwTzeZmS_MT8VIM_kDLp-7" vertex="1">
          <mxGeometry y="26" width="140" height="54" as="geometry" />
        </mxCell>
        <mxCell id="DwTzeZmS_MT8VIM_kDLp-15" value="&lt;span style=&quot;font-weight: 400&quot;&gt;buchungsorganisation&lt;br&gt;&lt;/span&gt;" style="shape=folder;fontStyle=1;spacingTop=10;tabWidth=40;tabHeight=14;tabPosition=left;html=1;align=right;verticalAlign=top;" parent="DwTzeZmS_MT8VIM_kDLp-1" vertex="1">
          <mxGeometry x="640" y="41" width="465" height="440" as="geometry" />
        </mxCell>
        <mxCell id="G37hjbCnQNVEzKA9ZmwU-0" value="«entity»&#xa;Wirtschaftsjahr" style="swimlane;fontStyle=0;childLayout=stackLayout;horizontal=1;startSize=26;fillColor=none;horizontalStack=0;resizeParent=1;resizeParentMax=0;resizeLast=0;collapsible=1;marginBottom=0;" parent="DwTzeZmS_MT8VIM_kDLp-1" vertex="1">
          <mxGeometry x="665" y="81" width="140" height="156" as="geometry" />
        </mxCell>
        <mxCell id="G37hjbCnQNVEzKA9ZmwU-1" value="+ Mandant" style="text;strokeColor=none;fillColor=none;align=left;verticalAlign=top;spacingLeft=4;spacingRight=4;overflow=hidden;rotatable=0;points=[[0,0.5],[1,0.5]];portConstraint=eastwest;" parent="G37hjbCnQNVEzKA9ZmwU-0" vertex="1">
          <mxGeometry y="26" width="140" height="26" as="geometry" />
        </mxCell>
        <mxCell id="G37hjbCnQNVEzKA9ZmwU-3" value="+ Startdatum" style="text;strokeColor=none;fillColor=none;align=left;verticalAlign=top;spacingLeft=4;spacingRight=4;overflow=hidden;rotatable=0;points=[[0,0.5],[1,0.5]];portConstraint=eastwest;" parent="G37hjbCnQNVEzKA9ZmwU-0" vertex="1">
          <mxGeometry y="52" width="140" height="26" as="geometry" />
        </mxCell>
        <mxCell id="G37hjbCnQNVEzKA9ZmwU-4" value="+ Enddatum" style="text;strokeColor=none;fillColor=none;align=left;verticalAlign=top;spacingLeft=4;spacingRight=4;overflow=hidden;rotatable=0;points=[[0,0.5],[1,0.5]];portConstraint=eastwest;" parent="G37hjbCnQNVEzKA9ZmwU-0" vertex="1">
          <mxGeometry y="78" width="140" height="26" as="geometry" />
        </mxCell>
        <mxCell id="G37hjbCnQNVEzKA9ZmwU-5" value="+ Bezeichner" style="text;strokeColor=none;fillColor=none;align=left;verticalAlign=top;spacingLeft=4;spacingRight=4;overflow=hidden;rotatable=0;points=[[0,0.5],[1,0.5]];portConstraint=eastwest;" parent="G37hjbCnQNVEzKA9ZmwU-0" vertex="1">
          <mxGeometry y="104" width="140" height="26" as="geometry" />
        </mxCell>
        <mxCell id="ND92nCrHSuS9NVeJZmGj-21" value="+ Kontenrahmenname" style="text;strokeColor=none;fillColor=none;align=left;verticalAlign=top;spacingLeft=4;spacingRight=4;overflow=hidden;rotatable=0;points=[[0,0.5],[1,0.5]];portConstraint=eastwest;" parent="G37hjbCnQNVEzKA9ZmwU-0" vertex="1">
          <mxGeometry y="130" width="140" height="26" as="geometry" />
        </mxCell>
        <mxCell id="G37hjbCnQNVEzKA9ZmwU-7" value="&lt;span style=&quot;font-weight: 400&quot;&gt;buchung&lt;br&gt;&lt;/span&gt;" style="shape=folder;fontStyle=1;spacingTop=10;tabWidth=40;tabHeight=14;tabPosition=left;html=1;align=right;verticalAlign=top;" parent="DwTzeZmS_MT8VIM_kDLp-1" vertex="1">
          <mxGeometry x="40" y="40" width="280" height="780" as="geometry" />
        </mxCell>
        <mxCell id="G37hjbCnQNVEzKA9ZmwU-8" value="«entity»&#xa;Geschäftsvorfall" style="swimlane;fontStyle=0;childLayout=stackLayout;horizontal=1;startSize=26;fillColor=none;horizontalStack=0;resizeParent=1;resizeParentMax=0;resizeLast=0;collapsible=1;marginBottom=0;" parent="DwTzeZmS_MT8VIM_kDLp-1" vertex="1">
          <mxGeometry x="60" y="70" width="140" height="52" as="geometry">
            <mxRectangle x="50" y="60" width="80" height="30" as="alternateBounds" />
          </mxGeometry>
        </mxCell>
        <mxCell id="GuKqGYsoTZjkPUpF07kW-1" value="+ Mandant" style="text;strokeColor=none;fillColor=none;align=left;verticalAlign=top;spacingLeft=4;spacingRight=4;overflow=hidden;rotatable=0;points=[[0,0.5],[1,0.5]];portConstraint=eastwest;" parent="G37hjbCnQNVEzKA9ZmwU-8" vertex="1">
          <mxGeometry y="26" width="140" height="26" as="geometry" />
        </mxCell>
        <mxCell id="ND92nCrHSuS9NVeJZmGj-0" value="«entity»&#xa;Primanota" style="swimlane;fontStyle=0;childLayout=stackLayout;horizontal=1;startSize=26;fillColor=none;horizontalStack=0;resizeParent=1;resizeParentMax=0;resizeLast=0;collapsible=1;marginBottom=0;" parent="DwTzeZmS_MT8VIM_kDLp-1" vertex="1">
          <mxGeometry x="60" y="174" width="140" height="208" as="geometry">
            <mxRectangle x="180" y="400" width="80" height="30" as="alternateBounds" />
          </mxGeometry>
        </mxCell>
        <mxCell id="ND92nCrHSuS9NVeJZmGj-1" value="+ Betrag" style="text;strokeColor=none;fillColor=none;align=left;verticalAlign=top;spacingLeft=4;spacingRight=4;overflow=hidden;rotatable=0;points=[[0,0.5],[1,0.5]];portConstraint=eastwest;" parent="ND92nCrHSuS9NVeJZmGj-0" vertex="1">
          <mxGeometry y="26" width="140" height="26" as="geometry" />
        </mxCell>
        <mxCell id="GuKqGYsoTZjkPUpF07kW-2" value="+ Belegdatum" style="text;strokeColor=none;fillColor=none;align=left;verticalAlign=top;spacingLeft=4;spacingRight=4;overflow=hidden;rotatable=0;points=[[0,0.5],[1,0.5]];portConstraint=eastwest;" parent="ND92nCrHSuS9NVeJZmGj-0" vertex="1">
          <mxGeometry y="52" width="140" height="26" as="geometry" />
        </mxCell>
        <mxCell id="ND92nCrHSuS9NVeJZmGj-2" value="+ Soll/Haben" style="text;strokeColor=none;fillColor=none;align=left;verticalAlign=top;spacingLeft=4;spacingRight=4;overflow=hidden;rotatable=0;points=[[0,0.5],[1,0.5]];portConstraint=eastwest;" parent="ND92nCrHSuS9NVeJZmGj-0" vertex="1">
          <mxGeometry y="78" width="140" height="26" as="geometry" />
        </mxCell>
        <mxCell id="ND92nCrHSuS9NVeJZmGj-3" value="+ Steuerschlüssel" style="text;strokeColor=none;fillColor=none;align=left;verticalAlign=top;spacingLeft=4;spacingRight=4;overflow=hidden;rotatable=0;points=[[0,0.5],[1,0.5]];portConstraint=eastwest;" parent="ND92nCrHSuS9NVeJZmGj-0" vertex="1">
          <mxGeometry y="104" width="140" height="26" as="geometry" />
        </mxCell>
        <mxCell id="ND92nCrHSuS9NVeJZmGj-4" value="+ Stornokennung" style="text;strokeColor=none;fillColor=none;align=left;verticalAlign=top;spacingLeft=4;spacingRight=4;overflow=hidden;rotatable=0;points=[[0,0.5],[1,0.5]];portConstraint=eastwest;" parent="ND92nCrHSuS9NVeJZmGj-0" vertex="1">
          <mxGeometry y="130" width="140" height="26" as="geometry" />
        </mxCell>
        <mxCell id="ND92nCrHSuS9NVeJZmGj-5" value="+ Konto" style="text;strokeColor=none;fillColor=none;align=left;verticalAlign=top;spacingLeft=4;spacingRight=4;overflow=hidden;rotatable=0;points=[[0,0.5],[1,0.5]];portConstraint=eastwest;" parent="ND92nCrHSuS9NVeJZmGj-0" vertex="1">
          <mxGeometry y="156" width="140" height="26" as="geometry" />
        </mxCell>
        <mxCell id="ND92nCrHSuS9NVeJZmGj-6" value="+ Gegenkonto" style="text;strokeColor=none;fillColor=none;align=left;verticalAlign=top;spacingLeft=4;spacingRight=4;overflow=hidden;rotatable=0;points=[[0,0.5],[1,0.5]];portConstraint=eastwest;" parent="ND92nCrHSuS9NVeJZmGj-0" vertex="1">
          <mxGeometry y="182" width="140" height="26" as="geometry" />
        </mxCell>
        <mxCell id="ND92nCrHSuS9NVeJZmGj-7" value="" style="endArrow=none;html=1;edgeStyle=orthogonalEdgeStyle;" parent="DwTzeZmS_MT8VIM_kDLp-1" source="G37hjbCnQNVEzKA9ZmwU-8" target="ND92nCrHSuS9NVeJZmGj-0" edge="1">
          <mxGeometry relative="1" as="geometry">
            <mxPoint x="430" y="440" as="sourcePoint" />
            <mxPoint x="590" y="440" as="targetPoint" />
          </mxGeometry>
        </mxCell>
        <mxCell id="ND92nCrHSuS9NVeJZmGj-8" value="1" style="edgeLabel;resizable=0;html=1;align=left;verticalAlign=bottom;" parent="ND92nCrHSuS9NVeJZmGj-7" connectable="0" vertex="1">
          <mxGeometry x="-1" relative="1" as="geometry">
            <mxPoint y="18" as="offset" />
          </mxGeometry>
        </mxCell>
        <mxCell id="ND92nCrHSuS9NVeJZmGj-9" value="1..n" style="edgeLabel;resizable=0;html=1;align=right;verticalAlign=bottom;" parent="ND92nCrHSuS9NVeJZmGj-7" connectable="0" vertex="1">
          <mxGeometry x="1" relative="1" as="geometry" />
        </mxCell>
        <mxCell id="ND92nCrHSuS9NVeJZmGj-10" value="«entity»&#xa;Journalbuchung" style="swimlane;fontStyle=0;childLayout=stackLayout;horizontal=1;startSize=26;fillColor=none;horizontalStack=0;resizeParent=1;resizeParentMax=0;resizeLast=0;collapsible=1;marginBottom=0;" parent="DwTzeZmS_MT8VIM_kDLp-1" vertex="1">
          <mxGeometry x="60" y="430" width="140" height="52" as="geometry">
            <mxRectangle x="180" y="400" width="80" height="30" as="alternateBounds" />
          </mxGeometry>
        </mxCell>
        <mxCell id="ND92nCrHSuS9NVeJZmGj-11" value="+ TBD" style="text;strokeColor=none;fillColor=none;align=left;verticalAlign=top;spacingLeft=4;spacingRight=4;overflow=hidden;rotatable=0;points=[[0,0.5],[1,0.5]];portConstraint=eastwest;" parent="ND92nCrHSuS9NVeJZmGj-10" vertex="1">
          <mxGeometry y="26" width="140" height="26" as="geometry" />
        </mxCell>
        <mxCell id="ND92nCrHSuS9NVeJZmGj-17" value="" style="endArrow=none;html=1;edgeStyle=orthogonalEdgeStyle;" parent="DwTzeZmS_MT8VIM_kDLp-1" source="ND92nCrHSuS9NVeJZmGj-0" target="ND92nCrHSuS9NVeJZmGj-10" edge="1">
          <mxGeometry relative="1" as="geometry">
            <mxPoint x="140" y="132" as="sourcePoint" />
            <mxPoint x="140" y="184" as="targetPoint" />
          </mxGeometry>
        </mxCell>
        <mxCell id="ND92nCrHSuS9NVeJZmGj-18" value="1" style="edgeLabel;resizable=0;html=1;align=left;verticalAlign=bottom;" parent="ND92nCrHSuS9NVeJZmGj-17" connectable="0" vertex="1">
          <mxGeometry x="-1" relative="1" as="geometry">
            <mxPoint y="18" as="offset" />
          </mxGeometry>
        </mxCell>
        <mxCell id="ND92nCrHSuS9NVeJZmGj-19" value="1..n" style="edgeLabel;resizable=0;html=1;align=right;verticalAlign=bottom;" parent="ND92nCrHSuS9NVeJZmGj-17" connectable="0" vertex="1">
          <mxGeometry x="1" relative="1" as="geometry" />
        </mxCell>
        <mxCell id="ND92nCrHSuS9NVeJZmGj-29" value="«entity»&#xa;Kontenrahmen" style="swimlane;fontStyle=0;childLayout=stackLayout;horizontal=1;startSize=26;fillColor=none;horizontalStack=0;resizeParent=1;resizeParentMax=0;resizeLast=0;collapsible=1;marginBottom=0;" parent="DwTzeZmS_MT8VIM_kDLp-1" vertex="1">
          <mxGeometry x="60" y="540" width="140" height="260" as="geometry">
            <mxRectangle x="180" y="400" width="80" height="30" as="alternateBounds" />
          </mxGeometry>
        </mxCell>
        <mxCell id="ND92nCrHSuS9NVeJZmGj-30" value="+ Kontenrahmenname" style="text;strokeColor=none;fillColor=none;align=left;verticalAlign=top;spacingLeft=4;spacingRight=4;overflow=hidden;rotatable=0;points=[[0,0.5],[1,0.5]];portConstraint=eastwest;" parent="ND92nCrHSuS9NVeJZmGj-29" vertex="1">
          <mxGeometry y="26" width="140" height="26" as="geometry" />
        </mxCell>
        <mxCell id="ND92nCrHSuS9NVeJZmGj-31" value="+ Startkontonummer" style="text;strokeColor=none;fillColor=none;align=left;verticalAlign=top;spacingLeft=4;spacingRight=4;overflow=hidden;rotatable=0;points=[[0,0.5],[1,0.5]];portConstraint=eastwest;" parent="ND92nCrHSuS9NVeJZmGj-29" vertex="1">
          <mxGeometry y="52" width="140" height="26" as="geometry" />
        </mxCell>
        <mxCell id="ND92nCrHSuS9NVeJZmGj-32" value="+ Endkontonummer" style="text;strokeColor=none;fillColor=none;align=left;verticalAlign=top;spacingLeft=4;spacingRight=4;overflow=hidden;rotatable=0;points=[[0,0.5],[1,0.5]];portConstraint=eastwest;" parent="ND92nCrHSuS9NVeJZmGj-29" vertex="1">
          <mxGeometry y="78" width="140" height="26" as="geometry" />
        </mxCell>
        <mxCell id="ND92nCrHSuS9NVeJZmGj-33" value="+ Kontenbezeichnung" style="text;strokeColor=none;fillColor=none;align=left;verticalAlign=top;spacingLeft=4;spacingRight=4;overflow=hidden;rotatable=0;points=[[0,0.5],[1,0.5]];portConstraint=eastwest;" parent="ND92nCrHSuS9NVeJZmGj-29" vertex="1">
          <mxGeometry y="104" width="140" height="26" as="geometry" />
        </mxCell>
        <mxCell id="ND92nCrHSuS9NVeJZmGj-34" value="+ Hauptfunktion" style="text;strokeColor=none;fillColor=none;align=left;verticalAlign=top;spacingLeft=4;spacingRight=4;overflow=hidden;rotatable=0;points=[[0,0.5],[1,0.5]];portConstraint=eastwest;" parent="ND92nCrHSuS9NVeJZmGj-29" vertex="1">
          <mxGeometry y="130" width="140" height="26" as="geometry" />
        </mxCell>
        <mxCell id="ND92nCrHSuS9NVeJZmGj-35" value="+ Zusatzfunktion" style="text;strokeColor=none;fillColor=none;align=left;verticalAlign=top;spacingLeft=4;spacingRight=4;overflow=hidden;rotatable=0;points=[[0,0.5],[1,0.5]];portConstraint=eastwest;" parent="ND92nCrHSuS9NVeJZmGj-29" vertex="1">
          <mxGeometry y="156" width="140" height="26" as="geometry" />
        </mxCell>
        <mxCell id="ND92nCrHSuS9NVeJZmGj-36" value="+ Funktionsergänzung" style="text;strokeColor=none;fillColor=none;align=left;verticalAlign=top;spacingLeft=4;spacingRight=4;overflow=hidden;rotatable=0;points=[[0,0.5],[1,0.5]];portConstraint=eastwest;" parent="ND92nCrHSuS9NVeJZmGj-29" vertex="1">
          <mxGeometry y="182" width="140" height="26" as="geometry" />
        </mxCell>
        <mxCell id="ND92nCrHSuS9NVeJZmGj-37" value="+ Gültigkeitsjahr" style="text;strokeColor=none;fillColor=none;align=left;verticalAlign=top;spacingLeft=4;spacingRight=4;overflow=hidden;rotatable=0;points=[[0,0.5],[1,0.5]];portConstraint=eastwest;" parent="ND92nCrHSuS9NVeJZmGj-29" vertex="1">
          <mxGeometry y="208" width="140" height="26" as="geometry" />
        </mxCell>
        <mxCell id="ND92nCrHSuS9NVeJZmGj-38" value="+ ..." style="text;strokeColor=none;fillColor=none;align=left;verticalAlign=top;spacingLeft=4;spacingRight=4;overflow=hidden;rotatable=0;points=[[0,0.5],[1,0.5]];portConstraint=eastwest;" parent="ND92nCrHSuS9NVeJZmGj-29" vertex="1">
          <mxGeometry y="234" width="140" height="26" as="geometry" />
        </mxCell>
        <mxCell id="ND92nCrHSuS9NVeJZmGj-39" value="«entity»&#xa;Umsatzsteuerart" style="swimlane;fontStyle=0;childLayout=stackLayout;horizontal=1;startSize=26;fillColor=none;horizontalStack=0;resizeParent=1;resizeParentMax=0;resizeLast=0;collapsible=1;marginBottom=0;" parent="DwTzeZmS_MT8VIM_kDLp-1" vertex="1">
          <mxGeometry x="665" y="251" width="140" height="104" as="geometry" />
        </mxCell>
        <mxCell id="ND92nCrHSuS9NVeJZmGj-40" value="+ Mandant" style="text;strokeColor=none;fillColor=none;align=left;verticalAlign=top;spacingLeft=4;spacingRight=4;overflow=hidden;rotatable=0;points=[[0,0.5],[1,0.5]];portConstraint=eastwest;" parent="ND92nCrHSuS9NVeJZmGj-39" vertex="1">
          <mxGeometry y="26" width="140" height="26" as="geometry" />
        </mxCell>
        <mxCell id="ND92nCrHSuS9NVeJZmGj-41" value="+ Geltungsjahr" style="text;strokeColor=none;fillColor=none;align=left;verticalAlign=top;spacingLeft=4;spacingRight=4;overflow=hidden;rotatable=0;points=[[0,0.5],[1,0.5]];portConstraint=eastwest;" parent="ND92nCrHSuS9NVeJZmGj-39" vertex="1">
          <mxGeometry y="52" width="140" height="26" as="geometry" />
        </mxCell>
        <mxCell id="ND92nCrHSuS9NVeJZmGj-42" value="+ Versteuerungsart" style="text;strokeColor=none;fillColor=none;align=left;verticalAlign=top;spacingLeft=4;spacingRight=4;overflow=hidden;rotatable=0;points=[[0,0.5],[1,0.5]];portConstraint=eastwest;" parent="ND92nCrHSuS9NVeJZmGj-39" vertex="1">
          <mxGeometry y="78" width="140" height="26" as="geometry" />
        </mxCell>
        <mxCell id="hB6JBr-_YSlUiS9QCMm9-0" value="«entity»&#xa;Stammdaten" style="swimlane;fontStyle=0;childLayout=stackLayout;horizontal=1;startSize=26;fillColor=none;horizontalStack=0;resizeParent=1;resizeParentMax=0;resizeLast=0;collapsible=1;marginBottom=0;" parent="DwTzeZmS_MT8VIM_kDLp-1" vertex="1">
          <mxGeometry x="830" y="81" width="140" height="78" as="geometry" />
        </mxCell>
        <mxCell id="SLKvnIGqB7pJZ4HmpFkr-0" value="+ Mandant" style="text;strokeColor=none;fillColor=none;align=left;verticalAlign=top;spacingLeft=4;spacingRight=4;overflow=hidden;rotatable=0;points=[[0,0.5],[1,0.5]];portConstraint=eastwest;" parent="hB6JBr-_YSlUiS9QCMm9-0" vertex="1">
          <mxGeometry y="26" width="140" height="26" as="geometry" />
        </mxCell>
        <mxCell id="hB6JBr-_YSlUiS9QCMm9-1" value="+ Kontenlängen" style="text;strokeColor=none;fillColor=none;align=left;verticalAlign=top;spacingLeft=4;spacingRight=4;overflow=hidden;rotatable=0;points=[[0,0.5],[1,0.5]];portConstraint=eastwest;" parent="hB6JBr-_YSlUiS9QCMm9-0" vertex="1">
          <mxGeometry y="52" width="140" height="26" as="geometry" />
        </mxCell>
      </root>
    </mxGraphModel>
  </diagram>
  <diagram id="UtG49OjuehTzZDv4U-XL" name="Prozess &quot;Mandant anlegen&quot;">
    <mxGraphModel dx="2814" dy="1432" grid="1" gridSize="10" guides="1" tooltips="1" connect="1" arrows="1" fold="1" page="1" pageScale="1" pageWidth="1169" pageHeight="827" math="0" shadow="0">
      <root>
        <mxCell id="gZ-g2k-7XlGbFRYFtA_T-0" />
        <mxCell id="gZ-g2k-7XlGbFRYFtA_T-1" parent="gZ-g2k-7XlGbFRYFtA_T-0" />
        <mxCell id="tSLxTH7VJHgAcDQtMiML-27" value="Mandant anlegen" style="swimlane;html=1;childLayout=stackLayout;resizeParent=1;resizeParentMax=0;horizontal=0;startSize=20;horizontalStack=0;" parent="gZ-g2k-7XlGbFRYFtA_T-1" vertex="1">
          <mxGeometry x="60" y="60" width="1070" height="480" as="geometry" />
        </mxCell>
        <mxCell id="tSLxTH7VJHgAcDQtMiML-28" value="User (Frontend)" style="swimlane;html=1;startSize=20;horizontal=0;" parent="tSLxTH7VJHgAcDQtMiML-27" vertex="1">
          <mxGeometry x="20" width="1050" height="160" as="geometry" />
        </mxCell>
        <mxCell id="tSLxTH7VJHgAcDQtMiML-29" value="" style="points=[[0.145,0.145,0],[0.5,0,0],[0.855,0.145,0],[1,0.5,0],[0.855,0.855,0],[0.5,1,0],[0.145,0.855,0],[0,0.5,0]];shape=mxgraph.bpmn.event;html=1;verticalLabelPosition=bottom;labelBackgroundColor=#ffffff;verticalAlign=top;align=center;perimeter=ellipsePerimeter;outlineConnect=0;aspect=fixed;outline=standard;symbol=general;" parent="tSLxTH7VJHgAcDQtMiML-28" vertex="1">
          <mxGeometry x="60" y="60" width="40" height="40" as="geometry" />
        </mxCell>
        <mxCell id="tSLxTH7VJHgAcDQtMiML-30" value="Name erfassen" style="points=[[0.25,0,0],[0.5,0,0],[0.75,0,0],[1,0.25,0],[1,0.5,0],[1,0.75,0],[0.75,1,0],[0.5,1,0],[0.25,1,0],[0,0.75,0],[0,0.5,0],[0,0.25,0]];shape=mxgraph.bpmn.task;whiteSpace=wrap;rectStyle=rounded;size=10;taskMarker=abstract;" parent="tSLxTH7VJHgAcDQtMiML-28" vertex="1">
          <mxGeometry x="140" y="60" width="120" height="40" as="geometry" />
        </mxCell>
        <mxCell id="tSLxTH7VJHgAcDQtMiML-31" value="" style="edgeStyle=elbowEdgeStyle;fontSize=12;html=1;endArrow=blockThin;endFill=1;" parent="tSLxTH7VJHgAcDQtMiML-28" source="tSLxTH7VJHgAcDQtMiML-29" target="tSLxTH7VJHgAcDQtMiML-30" edge="1">
          <mxGeometry width="160" relative="1" as="geometry">
            <mxPoint x="270" y="620" as="sourcePoint" />
            <mxPoint x="430" y="620" as="targetPoint" />
          </mxGeometry>
        </mxCell>
        <mxCell id="tSLxTH7VJHgAcDQtMiML-32" value="Mandant" style="swimlane;html=1;startSize=20;horizontal=0;" parent="tSLxTH7VJHgAcDQtMiML-27" vertex="1">
          <mxGeometry x="20" y="160" width="1050" height="160" as="geometry" />
        </mxCell>
        <mxCell id="tSLxTH7VJHgAcDQtMiML-33" value="anlegen" style="points=[[0.25,0,0],[0.5,0,0],[0.75,0,0],[1,0.25,0],[1,0.5,0],[1,0.75,0],[0.75,1,0],[0.5,1,0],[0.25,1,0],[0,0.75,0],[0,0.5,0],[0,0.25,0]];shape=mxgraph.bpmn.task;whiteSpace=wrap;rectStyle=rounded;size=10;taskMarker=abstract;" parent="tSLxTH7VJHgAcDQtMiML-32" vertex="1">
          <mxGeometry x="140" y="70" width="120" height="40" as="geometry" />
        </mxCell>
        <mxCell id="tSLxTH7VJHgAcDQtMiML-34" value="Buchungsorganisation" style="swimlane;html=1;startSize=20;horizontal=0;" parent="tSLxTH7VJHgAcDQtMiML-27" vertex="1">
          <mxGeometry x="20" y="320" width="1050" height="160" as="geometry" />
        </mxCell>
        <mxCell id="tSLxTH7VJHgAcDQtMiML-37" value="Daten speichern" style="points=[[0.25,0,0],[0.5,0,0],[0.75,0,0],[1,0.25,0],[1,0.5,0],[1,0.75,0],[0.75,1,0],[0.5,1,0],[0.25,1,0],[0,0.75,0],[0,0.5,0],[0,0.25,0]];shape=mxgraph.bpmn.task;whiteSpace=wrap;rectStyle=rounded;size=10;taskMarker=abstract;" parent="tSLxTH7VJHgAcDQtMiML-34" vertex="1">
          <mxGeometry x="780" y="60" width="120" height="40" as="geometry" />
        </mxCell>
        <mxCell id="tSLxTH7VJHgAcDQtMiML-38" value="" style="points=[[0.145,0.145,0],[0.5,0,0],[0.855,0.145,0],[1,0.5,0],[0.855,0.855,0],[0.5,1,0],[0.145,0.855,0],[0,0.5,0]];shape=mxgraph.bpmn.event;html=1;verticalLabelPosition=bottom;labelBackgroundColor=#ffffff;verticalAlign=top;align=center;perimeter=ellipsePerimeter;outlineConnect=0;aspect=fixed;outline=end;symbol=terminate2;" parent="tSLxTH7VJHgAcDQtMiML-34" vertex="1">
          <mxGeometry x="940" y="60" width="40" height="40" as="geometry" />
        </mxCell>
        <mxCell id="tSLxTH7VJHgAcDQtMiML-39" value="" style="edgeStyle=elbowEdgeStyle;fontSize=12;html=1;endArrow=blockThin;endFill=1;" parent="tSLxTH7VJHgAcDQtMiML-34" source="tSLxTH7VJHgAcDQtMiML-37" target="tSLxTH7VJHgAcDQtMiML-38" edge="1">
          <mxGeometry width="160" relative="1" as="geometry">
            <mxPoint x="930" y="200" as="sourcePoint" />
            <mxPoint x="960" y="80" as="targetPoint" />
          </mxGeometry>
        </mxCell>
        <mxCell id="tSLxTH7VJHgAcDQtMiML-40" value="" style="edgeStyle=elbowEdgeStyle;fontSize=12;html=1;endArrow=blockThin;endFill=1;" parent="tSLxTH7VJHgAcDQtMiML-27" source="tSLxTH7VJHgAcDQtMiML-30" target="tSLxTH7VJHgAcDQtMiML-33" edge="1">
          <mxGeometry width="160" relative="1" as="geometry">
            <mxPoint x="360" y="620" as="sourcePoint" />
            <mxPoint x="520" y="620" as="targetPoint" />
          </mxGeometry>
        </mxCell>
        <mxCell id="tSLxTH7VJHgAcDQtMiML-41" value="Kontenrahmen&#xa;auswählen" style="points=[[0.25,0,0],[0.5,0,0],[0.75,0,0],[1,0.25,0],[1,0.5,0],[1,0.75,0],[0.75,1,0],[0.5,1,0],[0.25,1,0],[0,0.75,0],[0,0.5,0],[0,0.25,0]];shape=mxgraph.bpmn.task;whiteSpace=wrap;rectStyle=rounded;size=10;taskMarker=abstract;" parent="gZ-g2k-7XlGbFRYFtA_T-1" vertex="1">
          <mxGeometry x="380" y="120" width="120" height="40" as="geometry" />
        </mxCell>
        <mxCell id="tSLxTH7VJHgAcDQtMiML-42" value="" style="edgeStyle=elbowEdgeStyle;fontSize=12;html=1;endArrow=blockThin;endFill=1;" parent="gZ-g2k-7XlGbFRYFtA_T-1" source="tSLxTH7VJHgAcDQtMiML-33" target="tSLxTH7VJHgAcDQtMiML-41" edge="1">
          <mxGeometry width="160" relative="1" as="geometry">
            <mxPoint x="420" y="670" as="sourcePoint" />
            <mxPoint x="580" y="670" as="targetPoint" />
          </mxGeometry>
        </mxCell>
        <mxCell id="tSLxTH7VJHgAcDQtMiML-44" value="Wirtschaftsjahr&#xa;definieren" style="points=[[0.25,0,0],[0.5,0,0],[0.75,0,0],[1,0.25,0],[1,0.5,0],[1,0.75,0],[0.75,1,0],[0.5,1,0],[0.25,1,0],[0,0.75,0],[0,0.5,0],[0,0.25,0]];shape=mxgraph.bpmn.task;whiteSpace=wrap;rectStyle=rounded;size=10;taskMarker=abstract;" parent="gZ-g2k-7XlGbFRYFtA_T-1" vertex="1">
          <mxGeometry x="540" y="120" width="120" height="40" as="geometry" />
        </mxCell>
        <mxCell id="tSLxTH7VJHgAcDQtMiML-45" value="" style="edgeStyle=elbowEdgeStyle;fontSize=12;html=1;endArrow=blockThin;endFill=1;" parent="gZ-g2k-7XlGbFRYFtA_T-1" source="tSLxTH7VJHgAcDQtMiML-41" target="tSLxTH7VJHgAcDQtMiML-44" edge="1">
          <mxGeometry width="160" relative="1" as="geometry">
            <mxPoint x="500" y="460" as="sourcePoint" />
            <mxPoint x="580" y="670" as="targetPoint" />
          </mxGeometry>
        </mxCell>
        <mxCell id="tSLxTH7VJHgAcDQtMiML-48" value="Versteuerungsart&#xa;festlegen" style="points=[[0.25,0,0],[0.5,0,0],[0.75,0,0],[1,0.25,0],[1,0.5,0],[1,0.75,0],[0.75,1,0],[0.5,1,0],[0.25,1,0],[0,0.75,0],[0,0.5,0],[0,0.25,0]];shape=mxgraph.bpmn.task;whiteSpace=wrap;rectStyle=rounded;size=10;taskMarker=abstract;" parent="gZ-g2k-7XlGbFRYFtA_T-1" vertex="1">
          <mxGeometry x="700" y="120" width="120" height="40" as="geometry" />
        </mxCell>
        <mxCell id="tSLxTH7VJHgAcDQtMiML-49" value="" style="edgeStyle=elbowEdgeStyle;fontSize=12;html=1;endArrow=blockThin;endFill=1;" parent="gZ-g2k-7XlGbFRYFtA_T-1" source="tSLxTH7VJHgAcDQtMiML-44" target="tSLxTH7VJHgAcDQtMiML-48" edge="1">
          <mxGeometry width="160" relative="1" as="geometry">
            <mxPoint x="660" y="460" as="sourcePoint" />
            <mxPoint x="580" y="670" as="targetPoint" />
          </mxGeometry>
        </mxCell>
        <mxCell id="tSLxTH7VJHgAcDQtMiML-51" value="Kontenlänge&#xa;definieren" style="points=[[0.25,0,0],[0.5,0,0],[0.75,0,0],[1,0.25,0],[1,0.5,0],[1,0.75,0],[0.75,1,0],[0.5,1,0],[0.25,1,0],[0,0.75,0],[0,0.5,0],[0,0.25,0]];shape=mxgraph.bpmn.task;whiteSpace=wrap;rectStyle=rounded;size=10;taskMarker=abstract;" parent="gZ-g2k-7XlGbFRYFtA_T-1" vertex="1">
          <mxGeometry x="860" y="120" width="120" height="40" as="geometry" />
        </mxCell>
        <mxCell id="tSLxTH7VJHgAcDQtMiML-52" value="" style="edgeStyle=elbowEdgeStyle;fontSize=12;html=1;endArrow=blockThin;endFill=1;" parent="gZ-g2k-7XlGbFRYFtA_T-1" source="tSLxTH7VJHgAcDQtMiML-48" target="tSLxTH7VJHgAcDQtMiML-51" edge="1">
          <mxGeometry width="160" relative="1" as="geometry">
            <mxPoint x="820" y="460" as="sourcePoint" />
            <mxPoint x="1170" y="580" as="targetPoint" />
          </mxGeometry>
        </mxCell>
        <mxCell id="tSLxTH7VJHgAcDQtMiML-53" value="" style="edgeStyle=elbowEdgeStyle;fontSize=12;html=1;endArrow=blockThin;endFill=1;" parent="gZ-g2k-7XlGbFRYFtA_T-1" source="tSLxTH7VJHgAcDQtMiML-51" target="tSLxTH7VJHgAcDQtMiML-37" edge="1">
          <mxGeometry width="160" relative="1" as="geometry">
            <mxPoint x="1010" y="580" as="sourcePoint" />
            <mxPoint x="1170" y="580" as="targetPoint" />
          </mxGeometry>
        </mxCell>
      </root>
    </mxGraphModel>
  </diagram>
  <diagram id="FL9HzhoCZNh_MVufrEr2" name="Silo Microservices">
    <mxGraphModel dx="2814" dy="1432" grid="1" gridSize="10" guides="1" tooltips="1" connect="1" arrows="1" fold="1" page="1" pageScale="1" pageWidth="1169" pageHeight="827" math="0" shadow="0">
      <root>
        <mxCell id="30lPcDG9JfDfECbmtNQb-0" />
        <mxCell id="30lPcDG9JfDfECbmtNQb-1" parent="30lPcDG9JfDfECbmtNQb-0" />
        <mxCell id="30lPcDG9JfDfECbmtNQb-5" value="Frontend Shell&lt;br&gt;&lt;br&gt;&lt;br&gt;&lt;br&gt;" style="rounded=0;whiteSpace=wrap;html=1;fillColor=#FFD966;" parent="30lPcDG9JfDfECbmtNQb-1" vertex="1">
          <mxGeometry x="80" y="80" width="360" height="80" as="geometry" />
        </mxCell>
        <mxCell id="30lPcDG9JfDfECbmtNQb-2" value="MS1" style="rounded=0;whiteSpace=wrap;html=1;fillColor=#FFF2CC;" parent="30lPcDG9JfDfECbmtNQb-1" vertex="1">
          <mxGeometry x="160" y="120" width="40" height="350" as="geometry" />
        </mxCell>
        <mxCell id="30lPcDG9JfDfECbmtNQb-3" value="MS2" style="rounded=0;whiteSpace=wrap;html=1;fillColor=#FFF2CC;" parent="30lPcDG9JfDfECbmtNQb-1" vertex="1">
          <mxGeometry x="240" y="120" width="40" height="350" as="geometry" />
        </mxCell>
        <mxCell id="30lPcDG9JfDfECbmtNQb-4" value="MS3" style="rounded=0;whiteSpace=wrap;html=1;fillColor=#FFF2CC;" parent="30lPcDG9JfDfECbmtNQb-1" vertex="1">
          <mxGeometry x="320" y="120" width="40" height="350" as="geometry" />
        </mxCell>
      </root>
    </mxGraphModel>
  </diagram>
  <diagram id="yyX_Nao8TwZqom0uTfTA" name="Kassenbuchung erfassen">
    <mxGraphModel dx="2345" dy="1193" grid="1" gridSize="10" guides="1" tooltips="1" connect="1" arrows="1" fold="1" page="1" pageScale="1" pageWidth="1169" pageHeight="827" math="0" shadow="0">
      <root>
        <mxCell id="yKZ3cHXeu1lrXMFWCI9M-0" />
        <mxCell id="yKZ3cHXeu1lrXMFWCI9M-1" parent="yKZ3cHXeu1lrXMFWCI9M-0" />
        <mxCell id="yKZ3cHXeu1lrXMFWCI9M-2" value=":Kasse FE" style="shape=umlLifeline;perimeter=lifelinePerimeter;whiteSpace=wrap;html=1;container=1;collapsible=0;recursiveResize=0;outlineConnect=0;" vertex="1" parent="yKZ3cHXeu1lrXMFWCI9M-1">
          <mxGeometry x="40" y="40" width="100" height="600" as="geometry" />
        </mxCell>
        <mxCell id="yKZ3cHXeu1lrXMFWCI9M-10" value="" style="html=1;points=[];perimeter=orthogonalPerimeter;" vertex="1" parent="yKZ3cHXeu1lrXMFWCI9M-2">
          <mxGeometry x="45" y="80" width="10" height="480" as="geometry" />
        </mxCell>
        <mxCell id="yKZ3cHXeu1lrXMFWCI9M-13" value="Periode&lt;br&gt;wählen" style="edgeStyle=orthogonalEdgeStyle;html=1;align=left;spacingLeft=2;endArrow=block;rounded=0;entryX=1.087;entryY=0.638;entryDx=0;entryDy=0;entryPerimeter=0;" edge="1" parent="yKZ3cHXeu1lrXMFWCI9M-2">
          <mxGeometry relative="1" as="geometry">
            <mxPoint x="55" y="140" as="sourcePoint" />
            <Array as="points">
              <mxPoint x="85" y="140" />
              <mxPoint x="85" y="161" />
            </Array>
            <mxPoint x="55.87000000000012" y="161.2199999999999" as="targetPoint" />
          </mxGeometry>
        </mxCell>
        <mxCell id="yKZ3cHXeu1lrXMFWCI9M-3" value=":Kasse BE" style="shape=umlLifeline;perimeter=lifelinePerimeter;whiteSpace=wrap;html=1;container=1;collapsible=0;recursiveResize=0;outlineConnect=0;" vertex="1" parent="yKZ3cHXeu1lrXMFWCI9M-1">
          <mxGeometry x="160" y="40" width="100" height="600" as="geometry" />
        </mxCell>
        <mxCell id="yKZ3cHXeu1lrXMFWCI9M-4" value="" style="html=1;points=[];perimeter=orthogonalPerimeter;" vertex="1" parent="yKZ3cHXeu1lrXMFWCI9M-3">
          <mxGeometry x="45" y="90" width="10" height="30" as="geometry" />
        </mxCell>
        <mxCell id="yKZ3cHXeu1lrXMFWCI9M-14" value="" style="html=1;points=[];perimeter=orthogonalPerimeter;" vertex="1" parent="yKZ3cHXeu1lrXMFWCI9M-3">
          <mxGeometry x="45" y="200" width="10" height="30" as="geometry" />
        </mxCell>
        <mxCell id="yKZ3cHXeu1lrXMFWCI9M-5" value="Anfangsbestand&lt;br&gt;laden" style="html=1;verticalAlign=bottom;startArrow=oval;endArrow=block;startSize=8;rounded=0;" edge="1" parent="yKZ3cHXeu1lrXMFWCI9M-1">
          <mxGeometry relative="1" as="geometry">
            <mxPoint x="99.5" y="130" as="sourcePoint" />
            <mxPoint x="205" y="131" as="targetPoint" />
          </mxGeometry>
        </mxCell>
        <mxCell id="yKZ3cHXeu1lrXMFWCI9M-9" value="Betrag" style="html=1;verticalAlign=bottom;endArrow=open;dashed=1;endSize=8;rounded=0;exitX=0.093;exitY=0.993;exitDx=0;exitDy=0;exitPerimeter=0;" edge="1" parent="yKZ3cHXeu1lrXMFWCI9M-1" source="yKZ3cHXeu1lrXMFWCI9M-4">
          <mxGeometry relative="1" as="geometry">
            <mxPoint x="195.12999999999988" y="210.55999999999995" as="sourcePoint" />
            <mxPoint x="95" y="159.78999999999996" as="targetPoint" />
          </mxGeometry>
        </mxCell>
        <mxCell id="yKZ3cHXeu1lrXMFWCI9M-15" value="Buchungsvorlagen&lt;br&gt;laden" style="html=1;verticalAlign=bottom;startArrow=oval;endArrow=block;startSize=8;rounded=0;entryX=0.1;entryY=0.022;entryDx=0;entryDy=0;entryPerimeter=0;" edge="1" parent="yKZ3cHXeu1lrXMFWCI9M-1" target="yKZ3cHXeu1lrXMFWCI9M-14">
          <mxGeometry relative="1" as="geometry">
            <mxPoint x="99.5" y="240" as="sourcePoint" />
            <mxPoint x="200" y="240" as="targetPoint" />
          </mxGeometry>
        </mxCell>
        <mxCell id="yKZ3cHXeu1lrXMFWCI9M-16" value="Vorlagen" style="html=1;verticalAlign=bottom;endArrow=open;dashed=1;endSize=8;rounded=0;exitX=0.093;exitY=0.993;exitDx=0;exitDy=0;exitPerimeter=0;" edge="1" parent="yKZ3cHXeu1lrXMFWCI9M-1" source="yKZ3cHXeu1lrXMFWCI9M-14">
          <mxGeometry relative="1" as="geometry">
            <mxPoint x="195.12999999999988" y="320.55999999999995" as="sourcePoint" />
            <mxPoint x="95" y="269.78999999999996" as="targetPoint" />
          </mxGeometry>
        </mxCell>
        <mxCell id="yKZ3cHXeu1lrXMFWCI9M-17" value="Vorlage&lt;br&gt;wählen" style="edgeStyle=orthogonalEdgeStyle;html=1;align=left;spacingLeft=2;endArrow=block;rounded=0;entryX=1.087;entryY=0.638;entryDx=0;entryDy=0;entryPerimeter=0;" edge="1" parent="yKZ3cHXeu1lrXMFWCI9M-1">
          <mxGeometry relative="1" as="geometry">
            <mxPoint x="95" y="290" as="sourcePoint" />
            <Array as="points">
              <mxPoint x="125" y="290" />
              <mxPoint x="125" y="311" />
            </Array>
            <mxPoint x="95.87000000000012" y="311.2199999999999" as="targetPoint" />
          </mxGeometry>
        </mxCell>
        <mxCell id="yKZ3cHXeu1lrXMFWCI9M-19" value=":Buchung BE" style="shape=umlLifeline;perimeter=lifelinePerimeter;whiteSpace=wrap;html=1;container=1;collapsible=0;recursiveResize=0;outlineConnect=0;" vertex="1" parent="yKZ3cHXeu1lrXMFWCI9M-1">
          <mxGeometry x="280" y="40" width="100" height="600" as="geometry" />
        </mxCell>
        <mxCell id="yKZ3cHXeu1lrXMFWCI9M-21" value="" style="html=1;points=[];perimeter=orthogonalPerimeter;" vertex="1" parent="yKZ3cHXeu1lrXMFWCI9M-1">
          <mxGeometry x="325" y="340" width="10" height="30" as="geometry" />
        </mxCell>
        <mxCell id="yKZ3cHXeu1lrXMFWCI9M-22" value="Steuersätze&lt;br&gt;laden" style="html=1;verticalAlign=bottom;startArrow=oval;endArrow=block;startSize=8;rounded=0;entryX=-0.076;entryY=0.012;entryDx=0;entryDy=0;entryPerimeter=0;" edge="1" parent="yKZ3cHXeu1lrXMFWCI9M-1" target="yKZ3cHXeu1lrXMFWCI9M-21">
          <mxGeometry relative="1" as="geometry">
            <mxPoint x="99.5" y="340" as="sourcePoint" />
            <mxPoint x="200" y="340" as="targetPoint" />
          </mxGeometry>
        </mxCell>
        <mxCell id="yKZ3cHXeu1lrXMFWCI9M-23" value="Steuersätze" style="html=1;verticalAlign=bottom;endArrow=open;dashed=1;endSize=8;rounded=0;exitX=0.093;exitY=0.993;exitDx=0;exitDy=0;exitPerimeter=0;" edge="1" parent="yKZ3cHXeu1lrXMFWCI9M-1" source="yKZ3cHXeu1lrXMFWCI9M-21">
          <mxGeometry relative="1" as="geometry">
            <mxPoint x="195.12999999999988" y="420.55999999999995" as="sourcePoint" />
            <mxPoint x="95" y="369.78999999999996" as="targetPoint" />
          </mxGeometry>
        </mxCell>
        <mxCell id="yKZ3cHXeu1lrXMFWCI9M-24" value="Primanota erfassen" style="edgeStyle=orthogonalEdgeStyle;html=1;align=left;spacingLeft=2;endArrow=block;rounded=0;entryX=1.087;entryY=0.638;entryDx=0;entryDy=0;entryPerimeter=0;" edge="1" parent="yKZ3cHXeu1lrXMFWCI9M-1">
          <mxGeometry relative="1" as="geometry">
            <mxPoint x="95" y="390" as="sourcePoint" />
            <Array as="points">
              <mxPoint x="125" y="390" />
              <mxPoint x="125" y="411" />
            </Array>
            <mxPoint x="95.87000000000012" y="411.2199999999999" as="targetPoint" />
          </mxGeometry>
        </mxCell>
        <mxCell id="yKZ3cHXeu1lrXMFWCI9M-26" value="" style="html=1;points=[];perimeter=orthogonalPerimeter;" vertex="1" parent="yKZ3cHXeu1lrXMFWCI9M-1">
          <mxGeometry x="325" y="440" width="10" height="30" as="geometry" />
        </mxCell>
        <mxCell id="yKZ3cHXeu1lrXMFWCI9M-27" value="Primanota validieren" style="html=1;verticalAlign=bottom;startArrow=oval;endArrow=block;startSize=8;rounded=0;entryX=-0.076;entryY=0.012;entryDx=0;entryDy=0;entryPerimeter=0;" edge="1" parent="yKZ3cHXeu1lrXMFWCI9M-1" target="yKZ3cHXeu1lrXMFWCI9M-26">
          <mxGeometry relative="1" as="geometry">
            <mxPoint x="99.5" y="440" as="sourcePoint" />
            <mxPoint x="200" y="440" as="targetPoint" />
          </mxGeometry>
        </mxCell>
        <mxCell id="yKZ3cHXeu1lrXMFWCI9M-28" value="Primanota valide" style="html=1;verticalAlign=bottom;endArrow=open;dashed=1;endSize=8;rounded=0;exitX=0.093;exitY=0.993;exitDx=0;exitDy=0;exitPerimeter=0;" edge="1" parent="yKZ3cHXeu1lrXMFWCI9M-1" source="yKZ3cHXeu1lrXMFWCI9M-26">
          <mxGeometry relative="1" as="geometry">
            <mxPoint x="195.12999999999988" y="520.56" as="sourcePoint" />
            <mxPoint x="95" y="469.78999999999996" as="targetPoint" />
          </mxGeometry>
        </mxCell>
        <mxCell id="yKZ3cHXeu1lrXMFWCI9M-29" value="" style="html=1;points=[];perimeter=orthogonalPerimeter;" vertex="1" parent="yKZ3cHXeu1lrXMFWCI9M-1">
          <mxGeometry x="325" y="500" width="10" height="50" as="geometry" />
        </mxCell>
        <mxCell id="yKZ3cHXeu1lrXMFWCI9M-30" value="Primanota speichern" style="html=1;verticalAlign=bottom;startArrow=oval;endArrow=block;startSize=8;rounded=0;entryX=-0.076;entryY=0.012;entryDx=0;entryDy=0;entryPerimeter=0;" edge="1" parent="yKZ3cHXeu1lrXMFWCI9M-1" target="yKZ3cHXeu1lrXMFWCI9M-29">
          <mxGeometry relative="1" as="geometry">
            <mxPoint x="99.5" y="500" as="sourcePoint" />
            <mxPoint x="200" y="500" as="targetPoint" />
          </mxGeometry>
        </mxCell>
        <mxCell id="yKZ3cHXeu1lrXMFWCI9M-31" value="okay" style="html=1;verticalAlign=bottom;endArrow=open;dashed=1;endSize=8;rounded=0;exitX=0.093;exitY=0.993;exitDx=0;exitDy=0;exitPerimeter=0;entryX=1.066;entryY=0.895;entryDx=0;entryDy=0;entryPerimeter=0;" edge="1" parent="yKZ3cHXeu1lrXMFWCI9M-1" source="yKZ3cHXeu1lrXMFWCI9M-29" target="yKZ3cHXeu1lrXMFWCI9M-10">
          <mxGeometry relative="1" as="geometry">
            <mxPoint x="195.12999999999988" y="580.56" as="sourcePoint" />
            <mxPoint x="100" y="550" as="targetPoint" />
          </mxGeometry>
        </mxCell>
        <mxCell id="yKZ3cHXeu1lrXMFWCI9M-32" value="Journalbuchungen&lt;br&gt;erstellen" style="edgeStyle=orthogonalEdgeStyle;html=1;align=left;spacingLeft=2;endArrow=block;rounded=0;entryX=1.087;entryY=0.638;entryDx=0;entryDy=0;entryPerimeter=0;" edge="1" parent="yKZ3cHXeu1lrXMFWCI9M-1">
          <mxGeometry relative="1" as="geometry">
            <mxPoint x="335" y="515" as="sourcePoint" />
            <Array as="points">
              <mxPoint x="365" y="515" />
              <mxPoint x="365" y="536" />
            </Array>
            <mxPoint x="335.8700000000001" y="536.2199999999998" as="targetPoint" />
          </mxGeometry>
        </mxCell>
        <mxCell id="yKZ3cHXeu1lrXMFWCI9M-33" value=":Queue" style="shape=umlLifeline;perimeter=lifelinePerimeter;whiteSpace=wrap;html=1;container=1;collapsible=0;recursiveResize=0;outlineConnect=0;" vertex="1" parent="yKZ3cHXeu1lrXMFWCI9M-1">
          <mxGeometry x="400" y="40" width="100" height="600" as="geometry" />
        </mxCell>
        <mxCell id="yKZ3cHXeu1lrXMFWCI9M-34" value="GoDB-event" style="html=1;verticalAlign=bottom;endArrow=block;rounded=0;exitX=0.98;exitY=0.959;exitDx=0;exitDy=0;exitPerimeter=0;" edge="1" parent="yKZ3cHXeu1lrXMFWCI9M-1" source="yKZ3cHXeu1lrXMFWCI9M-10" target="yKZ3cHXeu1lrXMFWCI9M-33">
          <mxGeometry width="80" relative="1" as="geometry">
            <mxPoint x="100" y="580" as="sourcePoint" />
            <mxPoint x="180" y="580" as="targetPoint" />
          </mxGeometry>
        </mxCell>
      </root>
    </mxGraphModel>
  </diagram>
</mxfile>
